<svg width="48" height="48" viewBox="0 0 48 48" fill="none" xmlns="http://www.w3.org/2000/svg">
<g clip-path="url(#clip0_39_20)">
<mask id="mask0_39_20" style="mask-type:alpha" maskUnits="userSpaceOnUse" x="0" y="0" width="48" height="48">
<path d="M0 0H48V48H0V0Z" fill="white"/>
</mask>
<g mask="url(#mask0_39_20)">
<path fill-rule="evenodd" clip-rule="evenodd" d="M0 24.134C0 36.066 8.666 45.988 20 48V30.666H14V24H20V18.666C20 12.666 23.866 9.334 29.334 9.334C31.066 9.334 32.934 9.6 34.666 9.866V16H31.6C28.666 16 28 17.466 28 19.334V24H34.4L33.334 30.666H28V48C39.334 45.988 48 36.068 48 24.134C48 10.86 37.2 0 24 0C10.8 0 0 10.86 0 24.134Z" fill="white"/>
</g>
</g>
<defs>
<clipPath id="clip0_39_20">
<rect width="48" height="48" fill="white"/>
</clipPath>
</defs>
</svg>
