<svg width="48" height="48" viewBox="0 0 48 48" fill="none" xmlns="http://www.w3.org/2000/svg">
<path d="M44.1234 13.8797C43.8843 12.9892 43.4156 12.1772 42.7641 11.5249C42.1125 10.8725 41.3011 10.4027 40.4109 10.1625C37.1344 9.28125 24 9.28125 24 9.28125C24 9.28125 10.8656 9.28125 7.58906 10.1578C6.69853 10.3972 5.88668 10.8668 5.23503 11.5192C4.58338 12.1717 4.11487 12.9842 3.87656 13.875C3 17.1562 3 24 3 24C3 24 3 30.8438 3.87656 34.1203C4.35937 35.9297 5.78437 37.3547 7.58906 37.8375C10.8656 38.7188 24 38.7188 24 38.7188C24 38.7188 37.1344 38.7188 40.4109 37.8375C42.2203 37.3547 43.6406 35.9297 44.1234 34.1203C45 30.8438 45 24 45 24C45 24 45 17.1563 44.1234 13.8797ZM19.8281 30.2812V17.7188L30.7031 23.9531L19.8281 30.2812Z" fill="white"/>
</svg>
