<svg width="70" height="72" viewBox="0 0 70 72" fill="none" xmlns="http://www.w3.org/2000/svg">
<rect width="70" height="72" fill="#1E4E87"/>
<g clip-path="url(#clip0_115_15)">
<path d="M29 54.6667C30.841 54.6667 32.3333 53.1743 32.3333 51.3333C32.3333 49.4924 30.841 48 29 48C27.1591 48 25.6667 49.4924 25.6667 51.3333C25.6667 53.1743 27.1591 54.6667 29 54.6667Z" fill="white"/>
<path d="M46.3333 54.6667C48.1743 54.6667 49.6667 53.1743 49.6667 51.3333C49.6667 49.4924 48.1743 48 46.3333 48C44.4924 48 43 49.4924 43 51.3333C43 53.1743 44.4924 54.6667 46.3333 54.6667Z" fill="white"/>
<path d="M51 30.0002C48.3478 30.0002 45.8043 28.9466 43.9289 27.0713C42.0536 25.1959 41 22.6524 41 20.0002H23.28L22.68 18.0935C22.6141 17.8888 22.4996 17.7031 22.3464 17.5522C22.1932 17.4012 22.0057 17.2896 21.8 17.2269L16.3333 15.5469C16.1652 15.4952 15.9886 15.4772 15.8136 15.4938C15.6385 15.5104 15.4684 15.5613 15.313 15.6436C14.9992 15.8099 14.7643 16.0941 14.66 16.4335C14.5557 16.773 14.5905 17.14 14.7568 17.4538C14.9231 17.7676 15.2072 18.0025 15.5467 18.1069L20.3333 19.5735L26.44 38.8669L24.2667 40.6535L24.0933 40.8269C23.5559 41.4492 23.2513 42.239 23.2319 43.0611C23.2124 43.8832 23.4792 44.6864 23.9867 45.3335C24.3501 45.7755 24.8119 46.1262 25.3351 46.3578C25.8584 46.5893 26.4285 46.6951 27 46.6669H49.2533C49.607 46.6669 49.9461 46.5264 50.1961 46.2763C50.4462 46.0263 50.5867 45.6872 50.5867 45.3335C50.5867 44.9799 50.4462 44.6408 50.1961 44.3907C49.9461 44.1407 49.607 44.0002 49.2533 44.0002H26.7867C26.6331 43.995 26.4835 43.9502 26.3523 43.8703C26.2211 43.7903 26.1128 43.6779 26.0377 43.5439C25.9627 43.4098 25.9234 43.2587 25.9238 43.1051C25.9242 42.9514 25.9642 42.8005 26.04 42.6669L29.2533 40.0002H49.8267C50.1312 40.0091 50.4297 39.9134 50.6723 39.729C50.9149 39.5446 51.087 39.2827 51.16 38.9869L53.44 29.6535C52.6441 29.8694 51.8245 29.9858 51 30.0002Z" fill="white"/>
<path d="M51 26.6668C54.6819 26.6668 57.6667 23.6821 57.6667 20.0002C57.6667 16.3183 54.6819 13.3335 51 13.3335C47.3181 13.3335 44.3333 16.3183 44.3333 20.0002C44.3333 23.6821 47.3181 26.6668 51 26.6668Z" fill="white"/>
</g>
<defs>
<clipPath id="clip0_115_15">
<rect width="48" height="48" fill="white" transform="translate(11 12)"/>
</clipPath>
</defs>
</svg>
