<svg width="86" height="24" viewBox="0 0 86 24" fill="none" xmlns="http://www.w3.org/2000/svg">
<path d="M0.0800002 0.983999H6.992V18.136H14.64V23H0.0800002V0.983999ZM27.4243 23.512C25.1203 23.512 23.0723 23.0213 21.2803 22.04C19.5096 21.0587 18.1229 19.704 17.1203 17.976C16.1389 16.2267 15.6483 14.2427 15.6483 12.024C15.6483 9.784 16.1389 7.78933 17.1203 6.04C18.1229 4.29067 19.5096 2.936 21.2803 1.976C23.0723 0.994666 25.1203 0.504 27.4243 0.504C29.7283 0.504 31.7656 0.994666 33.5363 1.976C35.3283 2.936 36.7149 4.29067 37.6963 6.04C38.6989 7.768 39.2003 9.76267 39.2003 12.024C39.2003 14.2427 38.6989 16.2267 37.6963 17.976C36.7149 19.704 35.3283 21.0587 33.5363 22.04C31.7443 23.0213 29.7069 23.512 27.4243 23.512ZM27.4243 17.688C28.7683 17.688 29.8669 17.1653 30.7203 16.12C31.5949 15.0747 32.0323 13.6987 32.0323 11.992C32.0323 10.8613 31.8296 9.85867 31.4243 8.984C31.0403 8.088 30.4963 7.39467 29.7923 6.904C29.0883 6.392 28.2883 6.136 27.3923 6.136C26.5176 6.136 25.7283 6.392 25.0243 6.904C24.3203 7.39467 23.7763 8.088 23.3923 8.984C23.0083 9.85867 22.8163 10.8613 22.8163 11.992C22.8163 13.6987 23.2429 15.0747 24.0963 16.12C24.9496 17.1653 26.0589 17.688 27.4243 17.688ZM52.5075 23.512C50.3528 23.512 48.4115 23 46.6835 21.976C44.9555 20.9307 43.6008 19.512 42.6195 17.72C41.6382 15.928 41.1475 13.9547 41.1475 11.8C41.1475 9.73067 41.6382 7.832 42.6195 6.104C43.6222 4.376 45.0088 3.01067 46.7795 2.008C48.5502 1.00533 50.5662 0.504 52.8275 0.504C54.0648 0.504 55.2595 0.642666 56.4115 0.919998C57.5848 1.19733 58.6408 1.592 59.5795 2.104L57.4675 7.064C56.0168 6.46667 54.6622 6.168 53.4035 6.168C51.7608 6.168 50.4915 6.70133 49.5955 7.768C48.6995 8.81333 48.2515 10.1893 48.2515 11.896C48.2515 13.0053 48.4542 14.008 48.8595 14.904C49.2648 15.7787 49.8302 16.472 50.5555 16.984C51.3022 17.496 52.1448 17.752 53.0835 17.752C53.5955 17.752 54.0222 17.7093 54.3635 17.624V12.472L59.8995 11.832V21.848C57.4888 22.9573 55.0248 23.512 52.5075 23.512ZM74.0493 23.512C71.7453 23.512 69.6973 23.0213 67.9053 22.04C66.1346 21.0587 64.7479 19.704 63.7453 17.976C62.7639 16.2267 62.2733 14.2427 62.2733 12.024C62.2733 9.784 62.7639 7.78933 63.7453 6.04C64.7479 4.29067 66.1346 2.936 67.9053 1.976C69.6973 0.994666 71.7453 0.504 74.0493 0.504C76.3533 0.504 78.3906 0.994666 80.1613 1.976C81.9533 2.936 83.3399 4.29067 84.3213 6.04C85.3239 7.768 85.8253 9.76267 85.8253 12.024C85.8253 14.2427 85.3239 16.2267 84.3213 17.976C83.3399 19.704 81.9533 21.0587 80.1613 22.04C78.3693 23.0213 76.3319 23.512 74.0493 23.512ZM74.0493 17.688C75.3933 17.688 76.4919 17.1653 77.3453 16.12C78.2199 15.0747 78.6573 13.6987 78.6573 11.992C78.6573 10.8613 78.4546 9.85867 78.0493 8.984C77.6653 8.088 77.1213 7.39467 76.4173 6.904C75.7133 6.392 74.9133 6.136 74.0173 6.136C73.1426 6.136 72.3533 6.392 71.6493 6.904C70.9453 7.39467 70.4013 8.088 70.0173 8.984C69.6333 9.85867 69.4413 10.8613 69.4413 11.992C69.4413 13.6987 69.8679 15.0747 70.7213 16.12C71.5746 17.1653 72.6839 17.688 74.0493 17.688Z" fill="#1E4E87"/>
</svg>
