<svg width="52" height="52" viewBox="0 0 52 52" fill="none" xmlns="http://www.w3.org/2000/svg">
<path d="M26 25.9998C23.6166 25.9998 21.5763 25.1512 19.8791 23.454C18.1819 21.7568 17.3333 19.7165 17.3333 17.3332C17.3333 14.9498 18.1819 12.9096 19.8791 11.2123C21.5763 9.51512 23.6166 8.6665 26 8.6665C28.3833 8.6665 30.4236 9.51512 32.1208 11.2123C33.818 12.9096 34.6666 14.9498 34.6666 17.3332C34.6666 19.7165 33.818 21.7568 32.1208 23.454C30.4236 25.1512 28.3833 25.9998 26 25.9998ZM13 43.3332C11.8083 43.3332 10.7885 42.9092 9.94063 42.0613C9.09129 41.212 8.66663 40.1915 8.66663 38.9998V37.2665C8.66663 36.0387 8.98296 34.9099 9.61563 33.88C10.2468 32.8516 11.0861 32.0665 12.1333 31.5248C14.3722 30.4054 16.6472 29.5654 18.9583 29.005C21.2694 28.446 23.6166 28.1665 26 28.1665C28.3833 28.1665 30.7305 28.446 33.0416 29.005C35.3527 29.5654 37.6277 30.4054 39.8666 31.5248C40.9138 32.0665 41.7531 32.8516 42.3843 33.88C43.017 34.9099 43.3333 36.0387 43.3333 37.2665V38.9998C43.3333 40.1915 42.9093 41.212 42.0615 42.0613C41.2121 42.9092 40.1916 43.3332 39 43.3332H13Z" fill="#1E4E87"/>
</svg>
