<svg width="29" height="29" viewBox="0 0 29 29" fill="none" xmlns="http://www.w3.org/2000/svg">
<path d="M14.6666 14.6665C12.7416 14.6665 11.0937 13.9811 9.72288 12.6103C8.35204 11.2394 7.66663 9.5915 7.66663 7.6665C7.66663 5.7415 8.35204 4.09359 9.72288 2.72275C11.0937 1.35192 12.7416 0.666504 14.6666 0.666504C16.5916 0.666504 18.2395 1.35192 19.6104 2.72275C20.9812 4.09359 21.6666 5.7415 21.6666 7.6665C21.6666 9.5915 20.9812 11.2394 19.6104 12.6103C18.2395 13.9811 16.5916 14.6665 14.6666 14.6665ZM4.16663 28.6665C3.20413 28.6665 2.38046 28.3241 1.69563 27.6393C1.00963 26.9533 0.666626 26.129 0.666626 25.1665V23.7665C0.666626 22.7748 0.922126 21.8631 1.43313 21.0313C1.94296 20.2006 2.62079 19.5665 3.46663 19.129C5.27496 18.2248 7.11246 17.5464 8.97913 17.0938C10.8458 16.6423 12.7416 16.4165 14.6666 16.4165C16.5916 16.4165 18.4875 16.6423 20.3541 17.0938C22.2208 17.5464 24.0583 18.2248 25.8666 19.129C26.7125 19.5665 27.3903 20.2006 27.9001 21.0313C28.4111 21.8631 28.6666 22.7748 28.6666 23.7665V25.1665C28.6666 26.129 28.3242 26.9533 27.6394 27.6393C26.9534 28.3241 26.1291 28.6665 25.1666 28.6665H4.16663Z" fill="#1E4E87"/>
</svg>
